<?xml version="1.0" encoding="UTF-8" standalone="no"?>
<!DOCTYPE svg PUBLIC "-//W3C//DTD SVG 1.1//EN" "http://www.w3.org/Graphics/SVG/1.1/DTD/svg11.dtd">
<svg xmlns="http://www.w3.org/2000/svg" version="1.1" viewBox="0.00 0.00 1340.00 208.00">

<path fill="#f05011" d="
  M 60.77 31.10
  Q 53.83 32.80 47.26 37.21
  C 40.19 41.96 36.90 49.29 37.12 57.75
  Q 37.42 69.34 46.57 77.49
  C 55.59 85.53 70.47 87.83 82.04 89.02
  C 95.48 90.39 108.25 93.44 119.63 100.18
  Q 123.37 102.40 127.16 105.53
  C 138.20 114.65 144.05 127.71 144.58 142.35
  Q 145.30 162.35 135.40 175.23
  Q 131.78 179.94 126.45 184.52
  C 120.72 189.45 113.85 193.04 106.42 195.50
  Q 86.46 202.12 64.21 199.48
  Q 43.05 196.98 25.28 184.20
  Q 15.49 177.16 9.78 166.76
  Q 7.49 162.60 6.32 159.38
  Q 5.31 156.64 7.06 152.91
  Q 8.24 150.39 10.87 148.81
  Q 19.89 143.40 28.28 151.21
  Q 29.71 152.54 33.08 158.45
  C 34.86 161.57 39.27 165.57 42.69 167.77
  Q 57.52 177.27 75.42 177.43
  C 87.19 177.54 98.90 175.18 108.23 168.44
  C 122.14 158.39 123.55 140.10 112.98 126.80
  C 103.84 115.31 88.80 111.80 74.36 110.26
  C 56.74 108.37 39.72 102.72 26.80 90.75
  C 17.79 82.40 12.58 70.47 12.34 57.95
  Q 11.89 34.64 29.63 20.98
  Q 37.18 15.16 47.14 11.67
  Q 67.13 4.68 89.08 6.79
  Q 110.51 8.85 125.09 22.17
  Q 133.03 29.42 139.13 38.67
  C 142.41 43.65 143.92 50.30 139.20 54.87
  C 135.01 58.91 128.06 58.96 123.39 55.82
  Q 121.11 54.29 119.48 51.53
  Q 112.92 40.41 101.81 34.23
  Q 95.64 30.79 86.85 29.66
  Q 73.64 27.96 60.77 31.10
  Z"
/>
<path fill="#f05011" d="
  M 551.75 118.28
  Q 551.75 119.24 552.42 118.55
  C 556.07 114.82 560.22 111.82 563.85 108.17
  C 566.24 105.76 568.97 103.77 571.51 101.43
  Q 579.57 93.99 587.67 87.00
  Q 590.27 84.76 592.66 82.37
  C 594.80 80.22 597.34 78.56 599.56 76.41
  C 603.17 72.89 607.01 69.81 610.73 66.46
  C 621.26 56.98 635.06 71.10 626.99 81.67
  C 625.54 83.57 623.33 84.64 621.64 86.36
  Q 617.78 90.29 612.88 94.19
  C 611.24 95.50 609.90 97.28 608.17 98.63
  Q 604.52 101.46 601.49 104.53
  C 598.83 107.24 595.74 109.29 593.06 111.94
  C 589.21 115.75 584.90 118.71 581.29 122.79
  Q 581.07 123.04 581.29 123.28
  C 582.24 124.31 583.34 125.17 584.13 126.33
  Q 585.37 128.13 586.78 129.70
  Q 588.41 131.53 589.96 133.49
  Q 591.50 135.45 593.09 137.40
  Q 609.96 158.08 628.09 180.41
  Q 630.71 183.63 630.74 188.09
  Q 630.76 192.04 627.92 195.18
  Q 623.51 200.04 616.92 199.43
  C 615.25 199.28 612.88 198.26 611.73 197.01
  C 610.09 195.22 608.21 193.45 606.88 191.40
  C 605.49 189.25 603.58 187.87 602.25 185.67
  C 601.36 184.17 600.04 183.11 598.96 181.72
  Q 593.26 174.39 587.08 167.06
  Q 585.97 165.75 585.10 164.39
  C 584.30 163.14 583.15 162.23 582.23 161.05
  Q 576.42 153.62 570.31 146.26
  Q 569.15 144.86 568.11 143.36
  C 567.20 142.06 564.64 140.19 564.41 138.70
  Q 564.27 137.86 563.64 138.42
  L 552.19 148.47
  Q 551.81 148.81 551.80 149.32
  Q 551.61 164.34 551.82 180.33
  Q 551.91 188.04 550.85 190.77
  Q 547.88 198.46 537.83 197.69
  C 531.18 197.18 527.97 192.11 527.98 185.87
  Q 528.04 105.50 528.00 20.54
  Q 527.99 10.88 536.79 8.73
  Q 538.89 8.22 542.68 8.83
  C 548.59 9.80 551.77 16.14 551.76 21.71
  Q 551.74 70.34 551.75 118.28
  Z"
/>
<path fill="#ffa11b" d="
  M 746.54 49.45
  Q 746.31 49.80 746.46 50.13
  Q 746.62 50.50 746.40 50.83
  C 745.08 52.82 744.58 55.05 743.67 57.21
  Q 739.48 67.10 735.47 77.01
  Q 713.54 131.20 699.89 163.53
  C 699.50 164.45 699.41 165.45 699.03 166.35
  Q 695.05 175.73 691.15 185.47
  Q 688.59 191.88 686.46 194.03
  C 681.79 198.77 673.65 199.33 668.93 194.52
  C 664.10 189.60 664.67 183.83 667.19 177.82
  Q 700.73 97.84 734.30 17.61
  Q 735.46 14.85 737.52 12.42
  C 741.16 8.12 747.58 7.42 752.31 9.89
  C 755.76 11.71 757.56 14.80 759.02 18.30
  Q 792.27 97.88 825.65 177.28
  C 827.17 180.89 828.33 183.98 827.60 188.04
  Q 827.12 190.66 825.75 192.49
  C 821.12 198.67 812.74 199.70 806.74 194.71
  C 804.57 192.90 803.58 189.42 802.50 186.75
  Q 774.70 118.06 747.22 49.53
  Q 746.95 48.85 746.54 49.45
  Z"
/>
<path fill="#ffa11b" d="
  M 892.22 166.15
  Q 892.68 166.41 892.58 166.91
  Q 892.47 167.52 892.93 167.95
  C 894.06 169.00 894.27 170.36 895.65 171.31
  C 900.06 174.36 903.92 173.76 908.73 173.89
  Q 912.13 173.98 914.30 176.04
  Q 918.11 179.63 918.49 184.74
  C 919.02 192.09 912.67 197.09 905.85 197.68
  C 879.21 199.97 865.32 177.79 865.29 153.69
  Q 865.19 86.84 865.25 21.67
  C 865.26 15.73 866.86 13.41 871.23 9.73
  Q 871.55 9.46 871.96 9.45
  Q 873.04 9.42 873.97 8.77
  Q 874.43 8.46 874.98 8.45
  Q 879.66 8.36 882.47 9.65
  Q 889.55 12.90 889.54 21.07
  Q 889.46 88.24 889.53 153.42
  Q 889.53 159.33 891.57 165.36
  Q 891.75 165.88 892.22 166.15
  Z"
/>
<path fill="#ffa11b" d="
  M 1007.11 180.01
  Q 1007.78 181.26 1007.99 182.57
  C 1008.50 185.84 1008.80 188.67 1006.67 191.48
  C 1002.20 197.36 995.75 198.26 988.71 197.75
  C 976.48 196.88 966.62 189.73 961.19 179.09
  C 956.31 169.53 955.01 160.72 955.00 150.50
  Q 954.90 87.14 955.02 22.60
  C 955.03 20.15 955.14 17.18 956.18 15.18
  Q 959.19 9.41 965.24 8.61
  Q 970.90 7.86 976.02 11.90
  Q 976.55 12.32 976.76 12.96
  Q 977.21 14.37 978.26 15.21
  Q 978.57 15.45 978.57 15.85
  C 978.58 17.55 979.25 18.91 979.25 20.70
  Q 979.26 84.35 979.26 148.00
  C 979.26 153.74 979.16 163.46 982.88 167.87
  Q 983.62 168.74 984.19 169.77
  C 986.39 173.79 991.85 173.99 996.35 173.75
  C 997.81 173.67 1001.32 173.96 1002.51 174.81
  Q 1005.43 176.89 1007.11 180.01
  Z"
/>
<circle fill="#898782" cx="1319.98" cy="27.62" r="15.96"/>
<path fill="#f05011" d="
  M 296.72 119.94
  A 0.16 0.16 0.0 0 0 296.87 119.73
  Q 293.09 106.78 283.16 98.19
  Q 281.30 96.57 279.22 95.29
  C 277.27 94.09 275.66 92.75 273.48 91.79
  Q 252.18 82.36 231.42 94.03
  Q 230.09 94.78 228.97 96.01
  C 227.81 97.30 226.21 97.74 224.97 98.98
  Q 214.92 109.00 212.20 120.37
  C 208.76 134.73 211.68 149.34 221.40 160.30
  C 227.71 167.41 235.12 172.39 244.62 174.38
  Q 261.64 177.93 276.47 169.91
  C 280.11 167.95 283.39 164.29 287.39 163.46
  C 294.32 162.03 301.30 167.47 301.43 174.42
  Q 301.53 179.99 297.29 183.59
  Q 281.44 197.04 259.96 198.63
  Q 235.84 200.41 216.80 187.33
  Q 207.58 180.99 200.26 171.32
  Q 194.14 163.23 190.96 153.68
  Q 185.11 136.08 188.96 116.80
  C 193.30 95.07 210.47 76.21 231.33 68.30
  Q 240.24 64.92 250.38 64.38
  Q 282.47 62.65 304.75 86.81
  Q 306.85 89.09 308.76 91.60
  Q 320.22 106.67 321.72 125.70
  C 322.04 129.70 322.61 133.85 320.27 137.51
  Q 316.70 143.11 310.31 143.16
  Q 284.41 143.34 256.30 143.24
  Q 251.92 143.22 249.39 141.92
  C 244.15 139.22 241.77 133.11 243.82 127.74
  Q 245.79 122.59 250.72 120.86
  Q 253.51 119.88 259.27 119.93
  Q 279.29 120.12 296.72 119.94
  Z"
/>
<path fill="#f05011" d="
  M 459.60 119.32
  Q 454.98 104.48 443.35 96.13
  Q 427.77 84.94 408.79 88.44
  Q 399.61 90.14 392.45 95.36
  Q 384.73 100.98 380.02 108.55
  Q 373.13 119.62 373.65 133.44
  Q 374.08 145.07 379.66 154.19
  Q 383.86 161.07 391.85 167.33
  Q 393.68 168.77 395.77 169.87
  Q 397.07 170.56 398.42 171.33
  Q 399.82 172.13 401.06 172.58
  C 416.08 178.05 432.54 175.86 445.32 165.82
  C 449.07 162.87 453.02 162.64 457.51 164.18
  Q 458.96 164.68 460.00 165.94
  C 460.93 167.05 462.19 167.84 462.83 169.15
  C 465.43 174.39 464.45 180.26 459.74 183.99
  Q 435.85 202.90 405.02 197.75
  Q 392.90 195.72 382.37 189.21
  Q 374.04 184.05 366.33 175.28
  Q 351.45 158.35 350.35 135.31
  Q 349.69 121.51 353.75 109.56
  C 360.79 88.80 379.56 71.38 400.90 66.22
  C 433.55 58.32 465.23 74.45 479.20 104.48
  Q 484.20 115.23 484.86 129.67
  C 485.26 138.45 479.51 143.37 471.10 143.31
  Q 446.61 143.12 420.67 143.34
  Q 416.30 143.37 413.56 142.48
  Q 409.12 141.03 407.19 137.01
  Q 404.66 131.74 407.10 126.55
  C 409.48 121.50 414.54 119.95 419.88 119.97
  Q 439.98 120.03 459.11 119.99
  Q 459.81 119.99 459.60 119.32
  Z"
/>
<path fill="#898782" d="
  M 1227.63 183.44
  C 1225.71 184.21 1224.48 185.79 1222.78 186.87
  Q 1220.17 188.52 1217.72 190.10
  Q 1215.11 191.78 1212.39 192.96
  Q 1190.11 202.62 1166.03 196.47
  C 1143.53 190.72 1123.69 170.33 1118.77 147.74
  C 1114.11 126.33 1118.48 104.01 1133.18 87.92
  C 1136.37 84.43 1139.76 80.90 1143.52 77.99
  Q 1161.43 64.09 1184.60 64.27
  Q 1207.14 64.45 1224.10 77.54
  C 1236.95 87.45 1246.80 101.00 1250.03 116.82
  Q 1251.67 124.87 1251.57 136.39
  Q 1251.34 159.99 1251.59 185.91
  Q 1251.63 189.75 1250.47 192.21
  Q 1249.00 195.33 1245.72 197.35
  Q 1243.24 198.89 1239.64 198.84
  Q 1232.21 198.74 1229.09 191.72
  C 1228.09 189.46 1228.22 186.38 1228.30 183.90
  Q 1228.32 183.16 1227.63 183.44
  Z
  M 1228.13 131.60
  A 43.94 43.94 0.0 0 0 1184.19 87.66
  A 43.94 43.94 0.0 0 0 1140.25 131.60
  A 43.94 43.94 0.0 0 0 1184.19 175.54
  A 43.94 43.94 0.0 0 0 1228.13 131.60
  Z"
/>
<rect fill="#898782" x="-12.37" y="-66.25" transform="translate(1320.11,131.54) rotate(0.1)" width="24.74" height="132.50" rx="11.74"/>
<circle fill="#898782" cx="1056.78" cy="185.00" r="16.77"/>
</svg>
