<?xml version="1.0" standalone="no"?><!DOCTYPE svg PUBLIC "-//W3C//DTD SVG 1.1//EN" "http://www.w3.org/Graphics/SVG/1.1/DTD/svg11.dtd"><svg t="1716192138793" class="icon" viewBox="0 0 1024 1024" version="1.1" xmlns="http://www.w3.org/2000/svg" p-id="5988" xmlns:xlink="http://www.w3.org/1999/xlink" width="200" height="200"><path d="M853.333333 554.666667h-170.666666v298.666666h170.666666v-298.666666z m0-85.333334V170.666667h-170.666666v298.666666h170.666666zM170.666667 554.666667v298.666666h170.666666v-298.666666H170.666667z m0-85.333334h170.666666V170.666667H170.666667v298.666666z m426.666666 0V170.666667h-170.666666v298.666666h170.666666z m0 85.333334h-170.666666v298.666666h170.666666v-298.666666z m341.333334-384v682.666666a85.333333 85.333333 0 0 1-85.333334 85.333334H170.666667a85.333333 85.333333 0 0 1-85.333334-85.333334V170.666667a85.333333 85.333333 0 0 1 85.333334-85.333334h682.666666a85.333333 85.333333 0 0 1 85.333334 85.333334z" p-id="5989" fill="#409EFF"></path></svg>